SplineFontDB: 3.0
FontName: AyannaNarrowSinhala-ExtraBold
FullName: AyannaNarrow
FamilyName: AyannaNarrow
Weight: ExtraBold
Copyright: Copyright (c) 2015, mooniak
UComments: "2015-3-5: Created with FontForge (http://fontforge.org)"
Version: pre
ItalicAngle: 0
UnderlinePosition: -102
UnderlineWidth: 51
Ascent: 819
Descent: 205
InvalidEm: 0
LayerCount: 2
Layer: 0 0 "Back" 1
Layer: 1 0 "Fore" 0
XUID: [1021 417 1726274797 7187508]
FSType: 0
OS2Version: 0
OS2_WeightWidthSlopeOnly: 0
OS2_UseTypoMetrics: 1
CreationTime: 1425560291
ModificationTime: 1441042080
OS2TypoAscent: 0
OS2TypoAOffset: 1
OS2TypoDescent: 0
OS2TypoDOffset: 1
OS2TypoLinegap: 92
OS2WinAscent: 0
OS2WinAOffset: 1
OS2WinDescent: 0
OS2WinDOffset: 1
HheadAscent: 0
HheadAOffset: 1
HheadDescent: 0
HheadDOffset: 1
OS2CapHeight: 0
OS2XHeight: 0
OS2Vendor: 'PfEd'
MarkAttachClasses: 1
DEI: 91125
Encoding: sinhala_final
UnicodeInterp: none
NameList: sinhala
DisplaySize: -48
AntiAlias: 1
FitToEm: 1
WidthSeparation: 154
WinInfo: 0 34 14
BeginPrivate: 0
EndPrivate
Grid
-1024 912 m 1024,2,-1
-1024 755 m 0,4,-1
 3561 755 l 1024
-1024 391 m 1024,16,-1
-1024 320 m 1024,18,-1
-1023 306 m 1024,20,-1
-1024 441 m 0,28,-1
 4285 441 l 1024
-1024 594 m 0,30,-1
 4338 594 l 1024
-1024 527 m 0,32,-1
 4338 527 l 1024
-1024 457.5 m 1024
-1024 489 m 0,35,-1
 4338 489 l 1024
-1024 458.5 m 1024
-1024 249 m 0,38,-1
 4167 249 l 1024
-1024 577 m 1024
-1024 204 m 0,41,-1
 4339 204 l 1024
-1024 122 m 0,43,-1
 4339 122 l 1024
-1024 79.5 m 0,45,-1
 4339 79.5 l 1024
4338 461 m 1024
-1032 405 m 0,48,-1
 4331 405 l 1024
EndSplineSet
BeginChars: 65541 507

StartChar: si_Tta
Encoding: 35 3495 0
Width: 558
VWidth: 0
Flags: HMW
LayerCount: 2
Back
Fore
SplineSet
262.72265625 755 m 4
 431.255859375 755 518.0078125 627.543945312 518.0078125 377.400390625 c 4
 518.0078125 79.5 406.145507812 0 270.145507812 0 c 4
 92.1455078125 0 40 136.287109375 40 252.395507812 c 4
 40 421.909179688 170.729492188 528.416992188 289.865234375 445.2578125 c 5
 252 345 l 5
 188.700195312 381.518554688 150 326.717773438 150 252.395507812 c 4
 150 189.243164062 177.225585938 115 270.145507812 115 c 4
 343.53515625 115 403.0078125 170.366210938 403.0078125 377.400390625 c 4
 403.0078125 551.28515625 360.041992188 640 262.72265625 640 c 4
 221.619140625 640 181.534179688 618.959960938 164.478515625 576.85546875 c 5
 55.4462890625 613.029296875 l 5
 91.4306640625 707.868164062 176.001953125 755 262.72265625 755 c 4
EndSplineSet
EndChar

StartChar: si_Sa
Encoding: 59 3523 1
Width: 618
VWidth: 0
Flags: HW
HStem: 0 122<1422.9 1494.05 1629.9 1697.09> 319.563 96.4365<1279.93 1323.96 1423.86 1517.41 1607.46 1697.33> 501.284 92.7158<1424.84 1506.92 1602.84 1690.65>
VStem: 1514.37 95.9111<139.916 249.5> 1525.5 75<416 546.103>
LayerCount: 2
Back
Fore
SplineSet
291.087890625 321 m 1
 279.087890625 360 283.056640625 396.735351562 283.056640625 428 c 0
 283.056640625 537.3359375 342.77734375 593.563476562 419.763671875 593.563476562 c 0
 537.177734375 593.563476562 597.762695312 464.833984375 529.056640625 374 c 1
 451.056640625 414 l 1
 475.28515625 444.241210938 464.419921875 496 419.763671875 496 c 0
 391.237304688 496 369.0078125 471.5078125 369.0078125 433.875 c 0
 369.0078125 428.211914062 369.51171875 422.2421875 370.572265625 416 c 1
 291.087890625 321 l 1
355.056640625 321 m 1
 275.572265625 416 l 1
 276.6328125 422.2421875 277.13671875 428.211914062 277.13671875 433.875 c 0
 277.13671875 471.5078125 254.907226562 497.436523438 226.380859375 497.436523438 c 0
 181.724609375 497.436523438 168.537109375 446.8046875 192.765625 416.563476562 c 1
 114.765625 376.563476562 l 1
 46.0595703125 467.397460938 108.966796875 593.563476562 226.380859375 593.563476562 c 0
 303.3671875 593.563476562 363.056640625 537.3359375 363.056640625 428 c 0
 363.056640625 396.735351562 367.056640625 360 355.056640625 321 c 1
370.572265625 416 m 1
 470.08203125 422.436523438 522.26953125 405 551.572265625 342 c 0
 609.228515625 218.041992188 578.650390625 0 430.81640625 0 c 0
 374.896484375 0 334.874023438 33.14453125 320.053710938 79.0302734375 c 1
 303.908203125 31.6025390625 260.736328125 0 208.056640625 0 c 0
 67.7421875 0 32.619140625 192.653320312 84.037109375 319.563476562 c 1
 40 319.666992188 l 1
 40 416 l 1
 275.572265625 416 l 1
 370.572265625 416 l 1
215.572265625 114 m 0
 262.272460938 114 274.447265625 175.66015625 274.447265625 249.5 c 1
 370.358398438 249.5 l 1
 370.358398438 176.205078125 383.701171875 115 426.69140625 115 c 0
 498.572265625 115 499.572265625 318 419.69140625 318 c 2
 222.572265625 318 l 2
 143.00390625 318 143.572265625 114 215.572265625 114 c 0
EndSplineSet
EndChar

StartChar: si_La
Encoding: 55 3517 2
Width: 607
VWidth: 0
Flags: HW
HStem: -205 110<244.534 400.762> 86.1064 109.2<352.858 446.886> 298 95<214.129 249.396 373.221 410.436> 450 110<236.89 408.833>
VStem: 25 114<36.2439 325.67> 226.527 117.784<204.271 291.225> 468 114<216.233 391.439>
LayerCount: 2
Back
Fore
SplineSet
313 -89 m 4
 388.1484375 -89 440.736328125 -41.00390625 449.563476562 22 c 5
 563 6 l 5
 550.665039062 -108.100585938 460.083984375 -205 313 -205 c 4
 116.895507812 -205 40 -28.6728515625 40 182 c 4
 40 377.26953125 95.9228515625 594 325 594 c 4
 497.126953125 594 567.779296875 445 567.779296875 326 c 4
 567.779296875 170.380859375 506.881835938 106.106445312 400 106.106445312 c 4
 245 106.106445312 229 256 270 318 c 5
 265.407226562 318 245.314453125 318 239 318 c 5
 240 413 l 5
 402 413 l 5
 402 318 l 5
 352 318 334.068359375 215.306640625 400 215.306640625 c 4
 440.966796875 215.306640625 453.779296875 256 453.779296875 326 c 4
 453.779296875 421.025390625 413.018554688 479 325 479 c 4
 189.212890625 479 155 326.634765625 155 182 c 4
 155 38.890625 206.895507812 -89 313 -89 c 4
EndSplineSet
EndChar

StartChar: si_Ddha
Encoding: 38 3498 3
Width: 610
VWidth: 0
Flags: HW
HStem: -203.419 159.545<-2579.77 -2479.9 -2303.93 -2198.45> 198.779 110.436<-2768.86 -2698.54 -2569.9 -2475.76>
VStem: -2735.09 138.128<-26.994 174.788> -2453.69 124.583<-19.8393 122.863>
LayerCount: 2
Back
Fore
SplineSet
570.484375 293 m 4
 570.484375 181.99609375 565 0 407.244140625 0 c 4
 351.32421875 0 313.301757812 33.14453125 298.481445312 79.0302734375 c 5
 282.3359375 31.6025390625 242.923828125 0 190.244140625 0 c 5
 74.4462890625 0 45.76171875 105.454101562 45.76171875 193.436523438 c 4
 45.76171875 234.737304688 57.244140625 280.436523438 71.244140625 306 c 5
 40 306 l 5
 40 391 l 5
 329.244140625 388 l 5
 363.083984375 304 l 5
 213 304.436523438 l 5
 172.244140625 304.436523438 152.76171875 245.162109375 152.76171875 193.436523438 c 4
 152.76171875 157.760742188 160.203125 115 190.244140625 115 c 4
 236.944335938 115 252.875 176.75 252.875 249.5 c 5
 348.786132812 249.5 l 5
 348.786132812 176.75 364.25390625 115 407.244140625 115 c 4
 455.244140625 115 455.484375 239.958007812 455.484375 293 c 4
 455.484375 390 438.799804688 492.959960938 418.614257812 556 c 4
 393.518554688 634.375976562 351.658203125 695.8671875 290.139648438 733 c 5
 362.139648438 817 l 5
 441.1171875 764.920898438 495.529296875 686.227539062 527.626953125 588 c 4
 551.615234375 514.590820312 570.484375 410 570.484375 293 c 4
425.139648438 557 m 5
 435.139648438 576 441.788085938 609.987304688 429.139648438 624 c 4
 422.942382812 630.865234375 388.139648438 656 377.139648438 652 c 5
 335.139648438 634 341.139648438 563 425.139648438 557 c 5
290.139648438 733 m 5
 356.139648438 781 l 5
 399.139648438 764 l 5
 449.045898438 736.635742188 519.508789062 491.768554688 441.139648438 461 c 5
 363.51953125 463.250976562 265.255859375 525 265.255859375 611.133789062 c 4
 265.255859375 686.51171875 338.047851562 697.581054688 290.139648438 733 c 5
188.15625 402.787109375 m 4
 188.15625 389.465820312 192.672851562 375.438476562 201.581054688 364.3203125 c 5
 125.870117188 326.3203125 l 5
 104.84375 354.120117188 95.5810546875 383.978515625 95.5810546875 412.419921875 c 4
 95.5810546875 484.68359375 147.646484375 529.563476562 221.948242188 529.563476562 c 4
 298.934570312 529.563476562 370.333007812 472.899414062 370.333007812 363.563476562 c 4
 370.333007812 349 367.139648438 323 363.083984375 304 c 5
 363.083984375 304 271.637695312 364.313476562 272.704101562 369.875 c 4
 279.244140625 404 263.244140625 442 221.948242188 442 c 4
 197.1484375 442 188.15625 424.133789062 188.15625 402.787109375 c 4
EndSplineSet
EndChar

StartChar: si_Dda
Encoding: 37 3497 4
Width: 610
VWidth: 0
Flags: HMW
LayerCount: 2
Back
Fore
SplineSet
455.484375 293 m 4
 455.484375 522.796875 391.83203125 639.884765625 266.91015625 639.884765625 c 4
 225.806640625 639.884765625 185.721679688 618.959960938 168.666015625 576.85546875 c 5
 59.6337890625 613.029296875 l 5
 95.6181640625 707.868164062 180.189453125 755 266.91015625 755 c 4
 467.693359375 755 570 599.055664062 570.484375 293 c 4
 570.484375 181.99609375 565 0 407.244140625 0 c 4
 351.32421875 0 313.301757812 33.14453125 298.481445312 79.0302734375 c 5
 282.3359375 31.6025390625 242.923828125 0 190.244140625 0 c 5
 74.4462890625 0 45.76171875 105.454101562 45.76171875 193.436523438 c 4
 45.76171875 234.737304688 57.244140625 280.436523438 71.244140625 306 c 5
 40 306 l 5
 40 391 l 5
 329.244140625 388 l 5
 363.083984375 304 l 5
 213 304.436523438 l 5
 172.244140625 304.436523438 152.76171875 245.162109375 152.76171875 193.436523438 c 4
 152.76171875 157.760742188 160.203125 115 190.244140625 115 c 4
 236.944335938 115 252.875 176.75 252.875 249.5 c 5
 348.786132812 249.5 l 5
 348.786132812 176.75 364.25390625 115 407.244140625 115 c 4
 455.244140625 115 455.484375 239.958007812 455.484375 293 c 4
188.15625 402.787109375 m 4
 188.15625 389.465820312 192.672851562 375.438476562 201.581054688 364.3203125 c 5
 125.870117188 326.3203125 l 5
 104.84375 354.120117188 95.5810546875 383.978515625 95.5810546875 412.419921875 c 4
 95.5810546875 484.68359375 147.646484375 529.563476562 221.948242188 529.563476562 c 4
 298.934570312 529.563476562 370.333007812 472.899414062 370.333007812 363.563476562 c 4
 370.333007812 349 367.139648438 323 363.083984375 304 c 5
 363.083984375 304 271.638671875 364.313476562 272.704101562 369.875 c 4
 279.244140625 404 263.244140625 442 221.948242188 442 c 4
 197.1484375 442 188.15625 424.133789062 188.15625 402.787109375 c 4
EndSplineSet
EndChar

StartChar: NameMe.12
Encoding: 65536 -1 5
Width: 728
VWidth: 0
Flags: HW
HStem: 0 122<221.569 298.459 433.925 515.2> 0 86<541.985 576.46> 307.551 84.4473<76 130.132 229.169 301.641>
VStem: 102 106.338<134.908 289.206> 318.634 95.9102<140.379 249.5>
LayerCount: 2
Back
Fore
SplineSet
541.985351562 86 m 5x78
 609.833007812 85 l 5
 724.241210938 -128.499023438 568.499023438 -244.220703125 372.967773438 -244.220703125 c 4
 212.981445312 -244.220703125 62.2255859375 -151.352539062 125.275390625 8 c 5
 231.985351562 -30 l 5
 170.985351562 -174 619.921875 -176 531.870117188 11 c 4
 541.985351562 86 l 5x78
250.032226562 445.086914062 m 4
 232.20703125 439.428710938 218.640625 420.435546875 228.481445312 391.998046875 c 5
 301.640625 391.998046875 l 5
 301.2109375 402.1484375 299.790039062 409.638671875 297.4765625 416.54296875 c 4
 288.34765625 443.784179688 266.970703125 450.462890625 250.032226562 445.086914062 c 4
276.69140625 750.219726562 m 5
 276.837890625 750.272460938 l 5
 274.502929688 763.051757812 l 5
 279.916015625 763.682617188 l 6
 369.2890625 774.09765625 453.462890625 740.361328125 512.037109375 685.104492188 c 4
 629.580078125 574.219726562 670.7734375 384.486328125 642.9375 186.834960938 c 4
 629.33203125 90.2265625 576.459960938 0 475.002929688 0 c 4
 419.08203125 0 379.0703125 33.142578125 364.240234375 79.02734375 c 5
 348.119140625 31.5908203125 304.922851562 0 252.243164062 0 c 4
 157.864257812 0 102 81.275390625 102 186.942382812 c 4
 102 228.936523438 114.108398438 276.842773438 130.131835938 305.666992188 c 5
 76 305.666992188 l 5
 76 391 l 5
 139.9921875 391 l 5
 137.538085938 405.115234375 137.2421875 416.875976562 138.6015625 428.748046875 c 4
 146.345703125 496.375 210.7109375 533.26953125 274.577148438 526.223632812 c 4
 348.333984375 518.086914062 418.94921875 451.995117188 401.74609375 311.889648438 c 6
 401.212890625 307.55078125 l 5
 242.772460938 307.55078125 l 5
 221.330078125 280.376953125 208.513671875 237.415039062 208.337890625 198.8046875 c 4
 208.138671875 155.053710938 224.03125 122 258.819335938 122 c 4
 303.704101562 122 318.633789062 173.137695312 318.633789062 244.5 c 6
 318.633789062 249.5 l 5
 414.543945312 249.5 l 5
 414.543945312 244.5 l 6
 414.543945312 173.000976562 429.655273438 122 470.877929688 122 c 4xb8
 490.083007812 122 518.063476562 125.640625 531.80078125 182.271484375 c 4
 551.754882812 264.529296875 547.53125 372.961914062 518.129882812 464.424804688 c 5
 286.165039062 426.54296875 348.004882812 656.65234375 300.423828125 652.633789062 c 4
 300.134765625 652.609375 299.844726562 652.590820312 299.5546875 652.55859375 c 6
 294.80078125 652.029296875 l 5
 294.782226562 652.130859375 l 5
 294.775390625 652.129882812 l 5
 293.947265625 656.65625 l 5
 276.69140625 750.219726562 l 5
414.791992188 579.803710938 m 4
 428.756835938 554.173828125 451.0703125 538.764648438 480.626953125 545.771484375 c 5
 468.384765625 565.178710938 451.452148438 586.458984375 435.813476562 600.876953125 c 4
 426.09375 609.837890625 413.803710938 619.052734375 402.883789062 625.185546875 c 5
 402.391601562 607.747070312 408.376953125 591.577148438 414.791992188 579.803710938 c 4
EndSplineSet
EndChar

StartChar: si_A
Encoding: 4 3461 6
Width: 596
VWidth: 0
Flags: HW
HStem: -5.16211 113.431<-1522.3 -1421.04> 332.06 87.5898<-1532.61 -1424.56>
VStem: -1682.09 107.548<157.947 289.699>
LayerCount: 2
Back
Fore
SplineSet
453.259765625 489 m 1
 406.259765625 457 412.858398438 403.255859375 412.259765625 327.2265625 c 1
 412.259765625 -205 l 1
 308.259765625 -205 l 1
 308.259765625 -4 l 1
 305.884765625 416 l 1
 305.884765625 416 318.259765625 489 363.954101562 533.184570312 c 1
 366.419921875 535.82421875 436.500976562 613.930664062 511.0546875 613.930664062 c 1
 511.33203125 614.115234375 547.103515625 560.6484375 553.259765625 552 c 1
 489.259765625 516 661.259765625 299 407.259765625 285 c 1
 409.259765625 374 l 1
 497.259765625 378 462.609375 451.747070312 453.259765625 489 c 1
556.22265625 156.064453125 m 1
 535.884765625 127 455.794921875 -8.3447265625 257 0 c 0
 137.884765625 5 40 96.6640625 40 217 c 0
 40 330.947265625 136.68359375 421.3515625 257 421.3515625 c 1
 275.834960938 421.3515625 288 420 305.806640625 418.436523438 c 1
 306.868164062 424.678710938 307.37109375 430.6484375 307.37109375 436.311523438 c 0
 307.37109375 473.944335938 285.141601562 498 256.615234375 498 c 0
 211.958984375 498 198.771484375 449.241210938 223 419 c 1
 145 379 l 1
 76.2939453125 469.833984375 139.201171875 596 256.615234375 596 c 0
 333.6015625 596 405 539.3359375 405 430 c 0
 405 398.735351562 398 357 386 318 c 1
 386 318 305.53125 318 257 318 c 0
 201 318 156 273 156 217 c 0
 156 161 199.884765625 120 257 116 c 0
 398.15234375 106.114257812 455.415039062 199.377929688 469.884765625 218.458984375 c 1
 556.22265625 156.064453125 l 1
EndSplineSet
EndChar

StartChar: si_U
Encoding: 10 3467 7
Width: 609
VWidth: 0
Flags: HW
HStem: -205 110<128.205 285.761> 320 95<139.769 271.602>
VStem: -69.8955 113.771<-3.08526 215.724>
LayerCount: 2
Back
Fore
SplineSet
337.139648438 320 m 5
 385.670898438 320 466.139648438 320 466.139648438 320 c 5
 478.139648438 359 485.139648438 400.735351562 485.139648438 432 c 4
 485.139648438 541.3359375 413.741210938 598 336.754882812 598 c 4
 219.340820312 598 156.43359375 471.833984375 225.139648438 381 c 5
 303.139648438 421 l 5
 278.911132812 451.241210938 292.098632812 500 336.754882812 500 c 4
 365.28125 500 387.510742188 475.944335938 387.510742188 438.311523438 c 4
 387.510742188 432.6484375 387.006835938 426.678710938 385.946289062 420.436523438 c 5
 368.139648438 422 355.974609375 423.3515625 337.139648438 423.3515625 c 5
 130.673828125 423.3515625 40 266.01953125 40 106 c 4
 40 -49.3154296875 132.942382812 -205 319.104492188 -205 c 4
 466.188476562 -205 556.76953125 -108.100585938 569.104492188 6 c 5
 455.66796875 22 l 5
 446.840820312 -41.00390625 394.252929688 -89 319.104492188 -89 c 4
 205.104492188 -89 153.770507812 0.208984375 153.770507812 106 c 4
 153.770507812 213.90625 209.7265625 320 337.139648438 320 c 5
EndSplineSet
EndChar

StartChar: si_Da
Encoding: 43 3503 8
Width: 518
VWidth: 0
Flags: HW
LayerCount: 2
Back
Fore
SplineSet
257 318 m 0
 201 318 156 273 156 217 c 0
 156 161 201 116 257 116 c 0
 292.29296875 116 323.569335938 131.385742188 343.662109375 155.436523438 c 1
 430 93.0419921875 l 1
 389.889648438 36.2998046875 327.454101562 0 257 0 c 0
 136.6640625 0 40 96.6640625 40 217 c 0
 40 330.947265625 136.68359375 421.3515625 257 421.3515625 c 1
 275.834960938 421.3515625 288 420 305.806640625 418.436523438 c 1
 306.868164062 424.678710938 307.37109375 430.6484375 307.37109375 436.311523438 c 0
 307.37109375 473.944335938 285.141601562 498 256.615234375 498 c 0
 227.259765625 498 211.431640625 477 211.431640625 453.1640625 c 0
 211.431640625 441.108398438 215.016601562 428.124023438 223 419 c 1
 145 379 l 1
 125.690429688 404.20703125 117.956054688 430.604492188 117.956054688 458.407226562 c 0
 117.956054688 534.13671875 170.055664062 596 256.615234375 596 c 0
 333.60546875 596 405 539.3359375 405 430 c 0
 405 398.735351562 398 357 386 318 c 1
 386 318 305.53125 318 257 318 c 0
401 -54.5634765625 m 1
 478 -106.563476562 l 1
 432.088867188 -175.430664062 377.333007812 -202.407226562 327.0546875 -202.407226562 c 0
 202.673828125 -202.407226562 132.862304688 -78.939453125 196 21.5380859375 c 1
 286 44.4365234375 l 1
 296 4 l 1
 266.696289062 -29.796875 274.99609375 -97 327.0546875 -97 c 0
 351.685546875 -97 378.508789062 -85.0556640625 401 -54.5634765625 c 1
EndSplineSet
EndChar

StartChar: si_Va
Encoding: 56 3520 9
Width: 571
VWidth: 0
Flags: HW
LayerCount: 2
Back
Fore
SplineSet
261.04296875 755 m 4
 400.514648438 755 531.188476562 675.859375 531.188476562 354 c 4
 531.188476562 118 450.188476562 0 270.188476562 0 c 4
 92.1884765625 0 40 137 40 218.826171875 c 4
 40 279.354492188 59.8984375 335.661132812 90.3779296875 362 c 4
 111.397460938 380.1640625 139.474609375 391 176.076171875 391 c 4
 183.076171875 391 256.71875 391 270.188476562 391 c 5
 299.188476562 363 344.1328125 306 344.1328125 306 c 5
 320.125 306 219.076171875 306 219.076171875 306 c 6
 163.076171875 306 150.67578125 270.6015625 150.67578125 226.6015625 c 4
 150.67578125 174 177.268554688 115 270.188476562 115 c 4
 374.640625 115 416.188476562 195.017578125 416.188476562 354 c 4
 416.188476562 583 343.868164062 639.884765625 261.04296875 639.884765625 c 4
 219.939453125 639.884765625 179.854492188 618.959960938 162.798828125 576.85546875 c 5
 53.7666015625 613.029296875 l 5
 89.7509765625 707.868164062 174.322265625 755 261.04296875 755 c 4
190.188476562 356 m 5
 110.188476562 318.563476562 l 5
 90.1884765625 351 79.724609375 380.620117188 79.724609375 409.272460938 c 4
 79.724609375 481.53515625 128.6953125 531.563476562 202.997070312 531.563476562 c 4
 279.983398438 531.563476562 351.381835938 474.899414062 351.381835938 365.563476562 c 4
 351.381835938 351 348.188476562 325 344.1328125 306 c 5
 344.1328125 306 252.6875 366.313476562 253.752929688 371.875 c 4
 260.29296875 406 244.29296875 444 202.997070312 444 c 4
 178.197265625 444 169.205078125 426.133789062 169.205078125 404.787109375 c 4
 169.205078125 386.79296875 181.490234375 370.325195312 190.188476562 356 c 5
EndSplineSet
EndChar

StartChar: si_Ca
Encoding: 28 3488 14
Width: 565
VWidth: 0
Flags: HW
HStem: 0 115.115<263.186 406.76> 306 85.998<93.7617 134.762 240.243 313.403> 446.801 80.2871<239.26 304.51>
VStem: 149.594 87.3271<391.998 443.931> 313.403 102.327<391.998 439.476> 474.273 114.116<198.736 531.477>
LayerCount: 2
Back
Fore
SplineSet
157.041015625 237 m 4
 146.459960938 185 170.76171875 115 264.76171875 115 c 4
 369.213867188 115 410.76171875 195.017578125 410.76171875 354 c 4
 410.76171875 583 338.44140625 639.884765625 255.616210938 639.884765625 c 4
 214.512695312 639.884765625 174.427734375 618.959960938 157.372070312 576.85546875 c 5
 48.33984375 613.029296875 l 5
 84.32421875 707.868164062 168.895507812 755 255.616210938 755 c 4
 395.087890625 755 525.76171875 675.859375 525.76171875 354 c 4
 525.76171875 118 444.76171875 0 264.76171875 0 c 4
 86.76171875 0 37.3212890625 133.560546875 47.353515625 223 c 4
 50.9697265625 255.19921875 60.34375 286.096679688 71.244140625 306 c 5
 40 306 l 5
 40 393 l 5
 304.866210938 390 l 5
 338.706054688 306 l 5
 213 306 l 6
 180.672851562 306 164.05859375 271.489257812 157.041015625 237 c 4
184.76171875 356 m 5
 104.76171875 318.563476562 l 5
 84.76171875 351 74.2978515625 380.620117188 74.2978515625 409.272460938 c 4
 74.2978515625 481.53515625 123.268554688 531.563476562 197.5703125 531.563476562 c 4
 274.556640625 531.563476562 345.955078125 474.899414062 345.955078125 365.563476562 c 4
 345.955078125 351 342.76171875 325 338.706054688 306 c 5
 338.706054688 306 247.260742188 366.313476562 248.326171875 371.875 c 4
 254.866210938 406 238.866210938 444 197.5703125 444 c 4
 172.770507812 444 163.778320312 426.133789062 163.778320312 404.787109375 c 4
 163.778320312 386.79296875 176.063476562 370.325195312 184.76171875 356 c 5
EndSplineSet
EndChar

StartChar: si_Ma
Encoding: 51 3512 15
Width: 569
VWidth: 0
Flags: HW
HStem: 0 115.115<209.284 352.122> 360.222 59.7783<273.381 314.345> 433 94<158.636 195.317> 468.895 58.2246<262.898 316.016>
VStem: 40 101.713<197.603 420.956> 209.233 39.7666<409.347 467.142> 316.447 65.8906<299.968 474.186> 423 106.854<211.847 518.227>
LayerCount: 2
Back
Fore
SplineSet
529.854492188 377.395507812 m 0
 529.854492188 204 490 0 281 0 c 0
 129.12890625 0 40 127 40 296 c 0
 40 410.515625 60 527 164 527 c 0
 204.403320312 527 233.78515625 511.5234375 246.744140625 475 c 0
 252.603515625 458.48828125 259.586914062 438.947265625 259.7109375 408 c 0
 259.8046875 384.65234375 248.03515625 364.890625 248 344 c 0
 247.962890625 322.444335938 261.0390625 308.720703125 275.854492188 308.57421875 c 0
 295.60546875 308.37890625 300.9375 350.478515625 300.854492188 382 c 0
 300.854492188 403.85546875 295.013671875 443.763671875 273.854492188 443.822265625 c 0
 256.833984375 443.869140625 240.854492188 436 239.854492188 409 c 0
 238.94140625 384.350585938 189.844726562 408.983398438 189.854492188 430 c 0
 189.880859375 488.650390625 224.533203125 526.969726562 279.854492188 527 c 0
 361.116210938 527.043945312 381.337890625 466.00390625 381.337890625 382.768554688 c 0
 381.337890625 299.954101562 379.737304688 220.44140625 276.854492188 220.552734375 c 0
 203.252929688 220.631835938 172.115234375 272.322265625 172.250976562 333 c 0
 172.383789062 392.200195312 197.419921875 433 169 433 c 0xef
 148.932617188 433 140.712890625 381.952148438 140.712890625 300.756835938 c 0
 140.712890625 222.424804688 172.672851562 115.115234375 281 115.115234375 c 0
 398 115.115234375 423 244.619140625 423 377.395507812 c 0
 423 459.568359375 407.100585938 540.287109375 371.685546875 590 c 0
 322.930664062 658.4375 203.854492188 654 171.854492188 575 c 1
 65.75390625 613.290039062 l 1
 125.854492188 789 375.776367188 804.66015625 471.028320312 646 c 0
 523.041015625 559.36328125 529.854492188 442.221679688 529.854492188 377.395507812 c 0
EndSplineSet
EndChar

StartChar: si_Ga
Encoding: 24 3484 16
Width: 693
VWidth: 0
Flags: HW
HStem: 0 119.812<-635.249 -508.047 -406.227 -280.834> 276 95<-521.629 -461.629> 473.877 119.812<-635.249 -522.841 -412.671 -280.619>
VStem: -787 103.468<176.762 415.557> -521.629 60<276 371> -480.629 91<182.79 293.523> -232.551 103.468<178.131 416.926>
LayerCount: 2
Back
Fore
SplineSet
245 110 m 0
 195.415039062 110 150 149.375 150 296.921875 c 0
 150 438.581054688 185.26953125 486 228.372070312 486 c 0
 270 486 284.823242188 452.5859375 290 436 c 1
 355 508 l 1
 345.71484375 543.978515625 304.286132812 594 228.372070312 594 c 0
 124.772460938 594 40 519.49609375 40 296.921875 c 0
 40 62.546875 138.000976562 0 245 0 c 0
 375.560546875 0 428.9921875 104.57421875 428.9921875 199 c 0
 428.9921875 255.70703125 405 330 335 350 c 1
 268 280 l 1
 280.262695312 275.094726562 326 249 326 199 c 0
 326 155.278320312 306 110 245 110 c 0
448.907226562 0.15625 m 0
 555.90625 0.15625 653.907226562 62.703125 653.907226562 297.078125 c 0
 653.907226562 531.453125 555.90625 594 448.907226562 594 c 0
 369 594 284 527 284 401 c 0
 284 369 280 344 228 311 c 1
 281 220 l 1
 341 254 386 306.241210938 386 362 c 0
 386 438 401.495117188 484 448.907226562 484 c 1
 498.4921875 484 543.907226562 444.625 543.907226562 297.078125 c 0
 543.907226562 147.163085938 498.487304688 108 448.907226562 108 c 1
 407.279296875 108 392.456054688 141.5703125 387.279296875 158.15625 c 1
 322.279296875 86.15625 l 1
 331.564453125 50.1787109375 372.993164062 0.15625 448.907226562 0.15625 c 0
EndSplineSet
EndChar

StartChar: si_Ya
Encoding: 53 3514 17
Width: 606
VWidth: 0
Flags: HW
HStem: 0 122<169.355 241.758 377.309 444.503> 319.563 96.4365<355.992 441.44> 501.284 92.7158<367.284 448.099>
VStem: 40 101.472<156.047 396.65> 261.782 95.9111<139.916 249.5>
LayerCount: 2
Back
Fore
SplineSet
407.025390625 319.563476562 m 6
 486.907226562 319.303710938 485.90625 122 414.025390625 122 c 4
 371.03515625 122 357.692382812 176.75 357.692382812 249.5 c 5
 261.78125 249.5 l 5
 261.78125 176.75 249.606445312 122 202.90625 122 c 4
 152.70703125 122 141.471679688 228.951171875 141.471679688 283 c 4
 141.471679688 366.8359375 166.90625 441 221.90625 441 c 5
 224.422851562 548.772460938 l 5
 100.360351562 548.772460938 40 418.984375 40 269.495117188 c 4
 40 147.606445312 79.0908203125 0 195.390625 0 c 4
 248.0703125 0 291.2421875 31.6025390625 307.387695312 79.0302734375 c 5
 322.208007812 33.14453125 362.23046875 0 418.150390625 0 c 4
 565.984375 0 596.5625 218.041992188 538.90625 342 c 4
 509.603515625 405 457.416015625 422.436523438 357.90625 416 c 5
 346.90625 486 385.375976562 501.284179688 411.401367188 501.284179688 c 4
 449.884765625 501.284179688 467.90625 461 442.90625 413 c 5
 445.90625 369 l 5
 510.90625 372 l 5
 582.90625 489 518.333007812 594 414.712890625 594 c 4
 295.07421875 594 234.90625 489 272.90625 320 c 13
 407.025390625 319.563476562 l 6
EndSplineSet
EndChar

StartChar: si_Ka
Encoding: 22 3482 19
Width: 790
VWidth: 0
Flags: HW
LayerCount: 2
Back
Fore
SplineSet
381.04296875 0 m 4
 342.04296875 0 307.04296875 29 297.627929688 52 c 5
 289.04296875 31 258.04296875 0 214 0 c 4
 91 0 97 123 108 141 c 5
 217 249 l 5
 190 227.963867188 187 191.751953125 187 156 c 4
 187 138.591796875 193.720703125 109 217 109 c 4
 235.657226562 109 252 119 252 160 c 4
 252 176.21875 252 202.995117188 252 227 c 5
 342 227 l 5
 342 202.2265625 342 176.891601562 342 160 c 4
 342 122 354 109 380 109 c 4
 415 109 415 165.987304688 415 210 c 4
 415 335.987304688 350 370 299 352 c 5
 372 432 l 5
 394.44140625 443 522 431 522 210 c 4
 522 112.106445312 487.04296875 0 381.04296875 0 c 4
86.787109375 462.427734375 m 4
 86.787109375 531 128.171875 583 209 583 c 4
 285.986328125 583 360.6953125 526.772460938 360.6953125 417.436523438 c 4
 360.6953125 386.171875 359 368.627929688 357 356.627929688 c 5
 264.404296875 406.627929688 l 5
 265.46484375 412.870117188 265.067382812 418.912109375 265.96875 424.502929688 c 4
 266.735351562 429.259765625 267.1015625 433.818359375 267.1015625 438.1640625 c 4
 267.1015625 472.963867188 243.64453125 494.100585938 214.912109375 494.100585938 c 4
 189.06640625 494.100585938 173.776367188 479.469726562 173.776367188 455.907226562 c 4
 173.776367188 422 204 394 249 374 c 5
 186 311 l 5
 98 359 86.787109375 432 86.787109375 462.427734375 c 4
506 482 m 4
 472.806640625 482 433.765625 473.506835938 385 423 c 4
 381.435546875 419.307617188 96.4580078125 122.674804688 88 115 c 5
 40 202 l 4
 107 271 136.060546875 298.06640625 196 364 c 4
 216 386 304 489 304 489 c 4
 353 545 416 594 506 594 c 4
 612.999023438 594 750 513.375 750 279 c 4
 750 56.42578125 656.227539062 0 552.627929688 0 c 4
 476.713867188 0 435.28515625 50.021484375 426 86 c 5
 491 158 l 5
 496.176757812 141.4140625 511 108 552.627929688 108 c 4
 595.73046875 108 639 137.340820312 639 279 c 4
 639 426.546875 555.584960938 482 506 482 c 4
EndSplineSet
EndChar

StartChar: si_Ra
Encoding: 54 3515 20
Width: 495
VWidth: 0
Flags: HW
LayerCount: 2
Back
Fore
SplineSet
383.545898438 779 m 0
 272.545898438 779 l 0
 272.545898438 723 239.098632812 679.428710938 195.545898438 630 c 0
 144.440429688 572 101.545898438 523 101.545898438 523 c 1
 118.545898438 474 l 1
 233.545898438 514 l 1
 233.545898438 514 287.890625 573.689453125 322.123046875 612 c 0
 360.545898438 655 383.545898438 720 383.545898438 779 c 0
247.545898438 593.688476562 m 0
 107.928710938 593.688476562 40 465.076171875 40 296.84375 c 0
 40 127.073242188 107.928710938 0 247.545898438 0 c 0
 387.749023438 0 455.67578125 127.073242188 455.67578125 296.84375 c 0
 455.67578125 465.076171875 387.749023438 593.688476562 247.545898438 593.688476562 c 0
  Spiro
    247.546 593.688 o
    131.776 554.19 o
    62.7359 448.442 o
    39.9959 296.844 o
    62.7359 144.563 o
    131.776 39.1574 o
    247.546 0 o
    363.726 39.1574 o
    432.916 144.563 o
    455.676 296.844 o
    432.916 448.442 o
    363.726 554.19 o
    0 0 z
  EndSpiro
249.407226562 473.876953125 m 0
 323.970703125 473.876953125 351.07421875 389.764648438 351.07421875 295.41796875 c 0
 351.07421875 199.53125 323.970703125 119.811523438 249.407226562 119.811523438 c 0
 172.177734375 119.811523438 143.467773438 199.53125 143.467773438 295.41796875 c 0
 143.467773438 389.764648438 172.177734375 473.876953125 249.407226562 473.876953125 c 0
  Spiro
    249.406 473.877 o
    308.856 448.624 o
    341.306 383.538 o
    351.076 295.418 o
    341.306 207.352 o
    308.856 143.985 o
    249.406 119.812 o
    187.666 143.985 o
    153.746 207.352 o
    143.466 295.418 o
    153.746 383.538 o
    187.666 448.624 o
    0 0 z
  EndSpiro
EndSplineSet
EndChar

StartChar: si_Pha
Encoding: 48 3509 22
Width: 584
VWidth: 0
Flags: HW
HStem: 1 122<-1826.62 -1697.81 -1593.81 -1435.78> 451.179 92.9785<-1557.47 -1443.85>
VStem: -1929.4 110<96 520.405> -1697.81 110<96 408.771> -1409.81 110<136.707 405.444>
LayerCount: 2
Back
Fore
SplineSet
270.188476562 115 m 4
 374.640625 115 429.188476562 181.017578125 429.188476562 340 c 4
 429.188476562 521.698242188 382.188476562 668 271.188476562 735 c 5
 343.188476562 819 l 5
 481.188476562 728 544.188476562 555.741210938 544.188476562 340 c 4
 544.188476562 104 450.188476562 0 270.188476562 0 c 4
 92.1884765625 0 40 137 40 218.826171875 c 4
 40 279.354492188 59.8984375 335.661132812 90.3779296875 362 c 4
 111.397460938 380.1640625 139.474609375 391 176.076171875 391 c 4
 183.076171875 391 268.71875 391 282.188476562 391 c 5
 322.3828125 373 344.1328125 306 344.1328125 306 c 5
 320.125 306 219.076171875 306 219.076171875 306 c 6
 163.076171875 306 150.67578125 270.6015625 150.67578125 226.6015625 c 4
 150.67578125 174 177.268554688 115 270.188476562 115 c 4
190.188476562 356 m 5
 110.188476562 318.563476562 l 5
 90.1884765625 351 79.724609375 380.620117188 79.724609375 409.272460938 c 4
 79.724609375 481.53515625 128.6953125 531.563476562 202.997070312 531.563476562 c 4
 279.983398438 531.563476562 351.381835938 474.899414062 351.381835938 365.563476562 c 4
 351.381835938 351 348.188476562 325 344.1328125 306 c 5
 344.1328125 306 252.6875 366.313476562 253.752929688 371.875 c 4
 260.29296875 406 244.29296875 444 202.997070312 444 c 4
 178.197265625 444 169.205078125 426.133789062 169.205078125 404.787109375 c 4
 169.205078125 386.79296875 181.490234375 370.325195312 190.188476562 356 c 5
406.188476562 559 m 5
 416.188476562 578 422.836914062 611.987304688 410.188476562 626 c 4
 403.991210938 632.865234375 369.188476562 658 358.188476562 654 c 5
 316.188476562 636 322.188476562 565 406.188476562 559 c 5
271.188476562 735 m 5
 337.188476562 783 l 5
 380.188476562 766 l 5
 430.094726562 738.635742188 500.557617188 493.768554688 422.188476562 463 c 5
 344.568359375 465.250976562 246.3046875 527 246.3046875 613.133789062 c 4
 246.3046875 688.51171875 319.096679688 699.581054688 271.188476562 735 c 5
EndSplineSet
EndChar

StartChar: si_Nna
Encoding: 39 3499 23
Width: 914
VWidth: 0
Flags: HW
LayerCount: 2
Back
Fore
SplineSet
408 703 m 5
 395 619 352 577 302 527 c 5
 382 466 l 5
 449 517 497 583 510 683 c 5
 408 703 l 5
535.901367188 297.078125 m 4
 535.901367188 496 420.381835938 594 280 594 c 4
 91 594 7 382 86 233 c 5
 131 285 l 5
 156 371 l 5
 156 426.325195312 193 480 280 480 c 4
 357.28125 480 420.901367188 416 420.901367188 297.078125 c 4
 420.901367188 185.544921875 375.487304688 112.55078125 278.546875 112.55078125 c 4
 230 112.55078125 191 131 161 115 c 4
 118 74 l 5
 142 9 l 5
 172 41 219.549804688 8.947265625 271 8.947265625 c 4
 434.72265625 8.947265625 535.901367188 108.526367188 535.901367188 297.078125 c 4
142 9 m 5
 153 157 188 143 248 185 c 5
 162 253 l 5
 82 180 60 183 40 29 c 5
 142 9 l 5
567.754882812 406 m 4
 594.754882812 406 599.95703125 372 599.95703125 333 c 4
 599.95703125 267.864257812 599.95703125 238 599.95703125 238 c 5
 692.95703125 238 l 5
 692.95703125 238 692.95703125 267.864257812 692.95703125 333 c 4
 692.95703125 372 698.159179688 406 725.159179688 406 c 4
 759 406 759.840820312 338.390625 759.840820312 277 c 4
 759.840820312 208.103515625 756.262695312 110 672 110 c 4
 611 110 600 141 589 168 c 5
 493 134 l 5
 505 48 587.4609375 0 672 0 c 4
 866.578125 0 874.840820312 166 874.840820312 277 c 4
 874.840820312 386 868.842773438 520 733 520 c 4
 694 520 655.943359375 491.129882812 646.45703125 468 c 5
 636.970703125 491.129882812 598.9140625 520 559.9140625 520 c 4
 456.95703125 520 432.16015625 415 448 268 c 4
 533 235 l 5
 542 287 518.794921875 406 567.754882812 406 c 4
167.235351562 298.48828125 m 4
 167.235351562 325.829101562 189.106445312 347.702148438 216.446289062 347.702148438 c 4
 243.786132812 347.702148438 265.659179688 325.829101562 265.659179688 298.48828125 c 4
 265.659179688 271.1484375 243.786132812 249.27734375 216.446289062 249.27734375 c 4
 189.106445312 249.27734375 167.235351562 271.1484375 167.235351562 298.48828125 c 4
71.0146484375 298.48828125 m 4
 71.0146484375 216.549804688 136.564453125 151 218.502929688 151 c 4
 300.444335938 151 366 216.549804688 366 298.48828125 c 4
 366 336.970703125 351.541015625 371.838867188 327.717773438 398 c 4
 304.909179688 423.046875 270.567382812 437 237.227539062 437 c 4
 200.885742188 437 165.732421875 420.948242188 148 398 c 5
 104.423828125 370.978515625 71.0146484375 335.545898438 71.0146484375 298.48828125 c 4
EndSplineSet
EndChar

StartChar: si_I
Encoding: 8 3465 24
Width: 567
VWidth: 0
Flags: HW
LayerCount: 2
Back
Fore
SplineSet
527.600585938 297.078125 m 0
 527.600585938 496 403.982421875 594 263.600585938 594 c 0
 74.6005859375 594 -9.3994140625 382 69.6005859375 233 c 1
 114.600585938 285 l 1
 139.600585938 371 l 1
 139.600585938 426.325195312 176.600585938 480 263.600585938 480 c 0
 340.881835938 480 412.600585938 416 412.600585938 297.078125 c 0
 412.600585938 210.806640625 346.600585938 86 202.600585938 94 c 1
 187.600585938 0 l 1
 432.600585938 -40 527.600585938 176.49609375 527.600585938 297.078125 c 0
311.434570312 -49 m 0
 311.434570312 -78.2548828125 286.978515625 -98.3525390625 256.412109375 -98.3525390625 c 0
 235.057617188 -98.3525390625 210.719726562 -87.1220703125 189.655273438 -58.5634765625 c 1
 112.655273438 -110.563476562 l 1
 154.484375 -176.14453125 213.438476562 -204.817382812 268.423828125 -204.817382812 c 0
 347.44921875 -204.817382812 418.275390625 -143.0078125 418.275390625 -49 c 0
 418.275390625 17 366.600585938 46 352.600585938 63 c 1
 228.600585938 56 l 1
 273.600585938 21 311.434570312 21 311.434570312 -49 c 0
54.615234375 298.48828125 m 0
 54.615234375 216.549804688 120.165039062 151 202.103515625 151 c 0
 284.044921875 151 349.600585938 216.549804688 349.600585938 298.48828125 c 0
 349.600585938 336.970703125 335.142578125 371.838867188 311.318359375 398 c 0
 288.509765625 423.046875 254.16796875 437 220.828125 437 c 0
 184.486328125 437 149.333007812 420.948242188 131.600585938 398 c 1
 88.0244140625 370.978515625 54.615234375 335.545898438 54.615234375 298.48828125 c 0
150.8359375 298.48828125 m 0
 150.8359375 325.829101562 172.70703125 347.702148438 200.046875 347.702148438 c 0
 227.38671875 347.702148438 249.259765625 325.829101562 249.259765625 298.48828125 c 0
 249.259765625 271.1484375 227.38671875 249.27734375 200.046875 249.27734375 c 0
 172.70703125 249.27734375 150.8359375 271.1484375 150.8359375 298.48828125 c 0
EndSplineSet
EndChar

StartChar: si_Pa
Encoding: 47 3508 25
Width: 609
VWidth: 0
Flags: HW
LayerCount: 2
Back
Fore
SplineSet
386 416 m 16
 508.3828125 416 569.439453125 329.65234375 569.439453125 224 c 0
 569.439453125 -91 40 -90.99609375 40 224 c 0
 40 329.65234375 101.056640625 416 223.439453125 416 c 0
 242.921875 416 254.201171875 416 254.201171875 416 c 2
 287.439453125 416 321.439453125 416 355.23828125 416 c 2
 355.23828125 416 360.95703125 416 386 416 c 16
380 318 m 0
 315.012695312 318 294.426757812 318 229.439453125 318 c 0
 174.439453125 318 147 275.725585938 147 224 c 0
 147 63.9228515625 462.439453125 64.5234375 462.439453125 224 c 0
 462.439453125 275.725585938 435 318 380 318 c 0
245.95703125 391 m 1
 255.712890625 416 l 1
 256.774414062 422.2421875 257.27734375 428.211914062 257.27734375 433.875 c 0
 257.27734375 471.5078125 235.047851562 495.563476562 206.521484375 495.563476562 c 0
 177.166015625 495.563476562 161.337890625 474.563476562 161.337890625 450.727539062 c 0
 161.337890625 438.671875 167.973632812 419.124023438 175.95703125 410 c 1
 97.95703125 370 l 1
 78.6474609375 395.20703125 67.8623046875 428.16796875 67.8623046875 455.970703125 c 0
 67.8623046875 531.700195312 119.961914062 593.563476562 206.521484375 593.563476562 c 0
 283.51171875 593.563476562 354.90625 536.899414062 354.90625 427.563476562 c 0
 354.90625 396.298828125 347.95703125 358 335.95703125 319 c 1
 245.95703125 391 l 1
363.482421875 391 m 1
 273.482421875 319 l 1
 261.482421875 358 254.533203125 396.298828125 254.533203125 427.563476562 c 0
 254.533203125 536.899414062 325.927734375 593.563476562 402.91796875 593.563476562 c 0
 489.477539062 593.563476562 541.577148438 531.700195312 541.577148438 455.970703125 c 0
 541.577148438 428.16796875 530.791992188 395.20703125 511.482421875 370 c 1
 433.482421875 410 l 1
 441.465820312 419.124023438 448.1015625 438.671875 448.1015625 450.727539062 c 0
 448.1015625 474.563476562 432.2734375 495.563476562 402.91796875 495.563476562 c 0
 374.391601562 495.563476562 352.162109375 471.5078125 352.162109375 433.875 c 0
 352.162109375 428.211914062 352.665039062 422.2421875 353.7265625 416 c 1
 363.482421875 391 l 1
EndSplineSet
EndChar

StartChar: si_E
Encoding: 16 3473 26
Width: 578
VWidth: 0
Flags: HW
HStem: -38.2314 87.1836<-1099.49 -980.376 -809.735 -698.307> 492.911 99.7012<-928.819 -879.162> 665.621 94.5781<-954.474 -784.026>
VStem: -1229.97 100.06<77.4772 191.075> -1163.54 95.8447<337.183 545.813> -1017.89 86.1113<435.808 491.933> -667.015 96.248<80.9554 204.048>
LayerCount: 2
Back
Fore
SplineSet
264.76171875 115 m 0
 369.213867188 115 423.76171875 181.017578125 423.76171875 340 c 0
 423.76171875 521.698242188 376.76171875 668 265.76171875 735 c 1
 337.76171875 819 l 1
 475.76171875 728 538.76171875 555.741210938 538.76171875 340 c 0
 538.76171875 104 444.76171875 0 264.76171875 0 c 0
 86.76171875 0 37.30859375 133.561523438 47.353515625 223 c 0
 50.9697265625 255.19921875 61.76171875 286 76.76171875 306 c 1
 40 306 l 1
 40 393 l 1
 304.866210938 390 l 1
 338.706054688 306 l 1
 231.76171875 306 l 2
 174.9765625 306 154.743164062 261.911132812 154.743164062 214.068359375 c 0
 154.743164062 166.573242188 184.077148438 115 264.76171875 115 c 0
184.76171875 356 m 1
 104.76171875 318.563476562 l 1
 84.76171875 351 74.2978515625 380.620117188 74.2978515625 409.272460938 c 0
 74.2978515625 481.53515625 123.268554688 531.563476562 197.5703125 531.563476562 c 0
 274.556640625 531.563476562 345.955078125 474.899414062 345.955078125 365.563476562 c 0
 345.955078125 351 342.76171875 325 338.706054688 306 c 1
 338.706054688 306 247.260742188 366.313476562 248.326171875 371.875 c 0
 254.866210938 406 238.866210938 444 197.5703125 444 c 0
 172.770507812 444 163.778320312 426.133789062 163.778320312 404.787109375 c 0
 163.778320312 386.79296875 176.063476562 370.325195312 184.76171875 356 c 1
400.76171875 559 m 1
 410.76171875 578 417.41015625 611.987304688 404.76171875 626 c 0
 398.564453125 632.865234375 363.76171875 658 352.76171875 654 c 1
 310.76171875 636 316.76171875 565 400.76171875 559 c 1
265.76171875 735 m 1
 331.76171875 783 l 1
 374.76171875 766 l 1
 424.66796875 738.635742188 495.130859375 493.768554688 416.76171875 463 c 1
 339.141601562 465.250976562 240.877929688 527 240.877929688 613.133789062 c 0
 240.877929688 688.51171875 313.669921875 699.581054688 265.76171875 735 c 1
EndSplineSet
EndChar

StartChar: si_MatraAe
Encoding: 65 3536 32
Width: 384
VWidth: 0
Flags: HW
LayerCount: 2
Back
Fore
SplineSet
76 546 m 5
 76 447 l 5
 76 447 148 447 184 447 c 5
 106 341 40 280 40 179 c 4
 40 116 73 0 192 0 c 4
 314 0 344 101 344 179 c 5
 248 179 l 5
 248 123 219 111 196 111 c 4
 171 111 148 137 148 179 c 4
 148 255 194 295 311 451 c 5
 311 491 311 522 311 546 c 5
 256.852539062 546 179 546 76 546 c 5
EndSplineSet
EndChar

StartChar: si_MatraAae
Encoding: 66 3537 33
Width: 384
VWidth: 0
Flags: HW
LayerCount: 2
Back
Fore
SplineSet
311 286 m 5
 311 326 311 361 311 385 c 5
 256.852539062 385 179 385 76 385 c 5
 76 286 l 5
 76 286 275 286 311 286 c 5
261 368 m 5
 181 368 40 286 40 157 c 4
 40 94 73 0 192 0 c 4
 314 0 344 101 344 179 c 5
 248 179 l 5
 248 93.5771484375 148 84.109375 148 157 c 4
 148 206 216 286 311 286 c 5
 261 368 l 5
227 385 m 5
 311 451 l 5
 311 491 311 522 311 546 c 5
 256.852539062 546 179 546 76 546 c 5
 76 447 l 5
 76 447 112 447 148 447 c 5
 76 385 l 5
 227 385 l 5
EndSplineSet
EndChar

StartChar: zwnj
Encoding: 82 8204 49
Width: 233
VWidth: 0
Flags: HW
LayerCount: 2
Back
Fore
SplineSet
77 -10.75 m 257
 77 780.75 l 257
 156 780.75 l 257
 156 -10.75 l 257
 77 -10.75 l 257
EndSplineSet
EndChar

StartChar: zwj
Encoding: 83 8205 50
Width: 452
VWidth: 0
Flags: HW
LayerCount: 2
Back
Fore
SplineSet
281.000976562 654.956054688 m 257
 375.45703125 562 l 257
 319.685546875 506.901367188 l 257
 265.228515625 561.358398438 l 257
 265.228515625 -10.5 l 257
 186.228515625 -10.5 l 257
 186.228515625 561.358398438 l 257
 131.771484375 506.901367188 l 257
 76 562 l 257
 170.456054688 654.956054688 l 257
 82.955078125 746.456054688 l 257
 138.771484375 801.598632812 l 257
 225.728515625 707.641601562 l 257
 319.685546875 803.598632812 l 261
 375.501953125 748.456054688 l 261
 281.000976562 654.956054688 l 257
EndSplineSet
EndChar

StartChar: si_Aa
Encoding: 5 3462 54
Width: 873
VWidth: 0
Flags: HW
LayerCount: 2
Back
Fore
SplineSet
833.840820312 277 m 0
 833.840820312 3 647 -31 572 21 c 1
 617 115 l 1
 662 88 718.840820312 145 718.840820312 277 c 0
 718.840820312 393.890625 674.267578125 460.62109375 632.815429688 448.609375 c 0
 604.840820312 552 l 0
 690.853515625 581.90625 833.840820312 516.697265625 833.840820312 277 c 0
EndSplineSet
Refer: 6 3461 N 1 0 0 1 0 0 2
EndChar

StartChar: si_Aae
Encoding: 7 3464 56
Width: 962
VWidth: 0
Flags: HW
LayerCount: 2
Back
Fore
SplineSet
889 286 m 1
 889 326 889 361 889 385 c 1
 834.852539062 385 757 385 654 385 c 1
 654 286 l 1
 654 286 853 286 889 286 c 1
839 368 m 1
 759 368 618 286 618 157 c 0
 618 94 651 0 770 0 c 0
 892 0 922 101 922 179 c 1
 826 179 l 1
 826 93.5771484375 726 84.109375 726 157 c 0
 726 206 794 286 889 286 c 1
 839 368 l 1
805 385 m 1
 889 451 l 1
 889 491 889 522 889 546 c 1
 834.852539062 546 757 546 654 546 c 1
 654 447 l 1
 654 447 690 447 726 447 c 1
 654 385 l 1
 805 385 l 1
EndSplineSet
Refer: 6 3461 N 1 0 0 1 0 0 2
EndChar

StartChar: si_Nndda
Encoding: 40 3500 77
Width: 750
VWidth: 0
Flags: HW
LayerCount: 2
Back
Fore
SplineSet
200 99 m 5
 257 19 l 5
 133 -36 40 34.92578125 40 234 c 4
 40 462 120.0078125 529.563476562 195 529.563476562 c 4
 256.704101562 529.563476562 304 481.54296875 304 403 c 5
 236.336914062 403.419921875 l 5
 236.336914062 436 216.787109375 445 195 445 c 4
 165.487304688 445 134 396.766601562 134 234 c 4
 134 109 168 90 200 99 c 5
595.484375 293 m 0
 595.484375 522.796875 531.83203125 639.884765625 406.91015625 639.884765625 c 0
 365.806640625 639.884765625 325.721679688 618.959960938 308.666015625 576.85546875 c 1
 199.633789062 613.029296875 l 1
 235.618164062 707.868164062 320.189453125 755 406.91015625 755 c 0
 607.693359375 755 710 599.055664062 710.484375 293 c 0
 710.484375 181.99609375 705 0 547.244140625 0 c 0
 491.32421875 0 453.301757812 33.14453125 438.481445312 79.0302734375 c 1
 422.3359375 31.6025390625 382.923828125 0 330.244140625 0 c 1
 214.446289062 0 185.76171875 105.454101562 185.76171875 193.436523438 c 0
 185.76171875 234.737304688 197.244140625 280.436523438 211.244140625 306 c 1
 180 306 l 1
 180 391 l 1
 469.244140625 388 l 1
 503.083984375 304 l 1
 353 304.436523438 l 1
 312.244140625 304.436523438 292.76171875 245.162109375 292.76171875 193.436523438 c 0
 292.76171875 157.760742188 300.203125 115 330.244140625 115 c 0
 376.944335938 115 392.875 176.75 392.875 249.5 c 1
 488.786132812 249.5 l 1
 488.786132812 176.75 504.25390625 115 547.244140625 115 c 0
 595.244140625 115 595.484375 239.958007812 595.484375 293 c 0
328.15625 402.787109375 m 0
 328.15625 389.465820312 332.672851562 375.438476562 341.581054688 364.3203125 c 1
 265.870117188 326.3203125 l 1
 244.84375 354.120117188 235.581054688 383.978515625 235.581054688 412.419921875 c 0
 235.581054688 484.68359375 287.646484375 529.563476562 361.948242188 529.563476562 c 0
 438.934570312 529.563476562 510.333007812 472.899414062 510.333007812 363.563476562 c 0
 510.333007812 349 507.139648438 323 503.083984375 304 c 1
 503.083984375 304 411.638671875 364.313476562 412.704101562 369.875 c 0
 419.244140625 404 403.244140625 442 361.948242188 442 c 0
 337.1484375 442 328.15625 424.133789062 328.15625 402.787109375 c 0
EndSplineSet
EndChar

StartChar: si_Tha
Encoding: 42 3502 79
Width: 571
VWidth: 0
Flags: HW
LayerCount: 2
Back
Fore
SplineSet
531.145507812 354 m 0
 531.145507812 118 450.145507812 0 270.145507812 0 c 0
 92.1455078125 0 40 136.287109375 40 252.395507812 c 0
 40 421.909179688 170.729492188 528.416992188 289.865234375 445.2578125 c 1
 252 345 l 1
 188.700195312 381.518554688 150 326.717773438 150 252.395507812 c 0
 150 189.243164062 177.225585938 115 270.145507812 115 c 0
 374.59765625 115 416.145507812 195.017578125 416.145507812 354 c 0
 416.145507812 535.698242188 369.145507812 668 258.145507812 735 c 1
 330.145507812 819 l 1
 468.145507812 728 531.145507812 569.741210938 531.145507812 354 c 0
393.145507812 559 m 1
 403.145507812 578 409.793945312 611.987304688 397.145507812 626 c 0
 390.948242188 632.865234375 356.145507812 658 345.145507812 654 c 1
 303.145507812 636 309.145507812 565 393.145507812 559 c 1
258.145507812 735 m 1
 324.145507812 783 l 1
 367.145507812 766 l 1
 417.051757812 738.635742188 487.514648438 493.768554688 409.145507812 463 c 1
 331.525390625 465.250976562 233.26171875 527 233.26171875 613.133789062 c 0
 233.26171875 688.51171875 306.053710938 699.581054688 258.145507812 735 c 1
EndSplineSet
EndChar

StartChar: si_Dha
Encoding: 44 3504 80
Width: 609
VWidth: 0
Flags: HW
HStem: 0 122<-1645.38 -1568.49 -1433.02 -1351.81> 307.551 84.4473<-1790.95 -1736.81 -1637.78 -1565.31>
VStem: -1764.95 106.338<134.908 289.206> -1548.31 95.9104<140.379 249.5>
LayerCount: 2
Back
Fore
SplineSet
569.026367188 293 m 0
 569.026367188 181.99609375 563.541992188 0 405.786132812 0 c 0
 349.866210938 0 311.84375 33.14453125 297.0234375 79.0302734375 c 1
 280.877929688 31.6025390625 241.465820312 0 188.786132812 0 c 0
 20.7861328125 0 28.1923828125 258 54.0712890625 341 c 0
 79.376953125 422.157226562 138.951171875 474.71484375 205.875 474.71484375 c 0
 233.641601562 474.71484375 262.673828125 465.66796875 291.046875 445.862304688 c 1
 253.181640625 345.604492188 l 1
 239.334960938 353.59375 226.6640625 357.211914062 215.318359375 357.211914062 c 0
 187.779296875 357.211914062 168.045898438 335.891601562 158.23046875 304 c 0
 146.235351562 265.024414062 140.787109375 124 188.786132812 115 c 0
 234.686523438 106.393554688 251.416992188 176.75 251.416992188 249.5 c 1
 347.328125 249.5 l 1
 347.328125 176.75 362.795898438 115 405.786132812 115 c 0
 453.786132812 115 454.026367188 239.958007812 454.026367188 293 c 0
 454.026367188 522.796875 390.374023438 639.884765625 265.452148438 639.884765625 c 0
 224.348632812 639.884765625 184.263671875 618.959960938 167.208007812 576.85546875 c 1
 58.17578125 613.029296875 l 1
 94.16015625 707.868164062 178.731445312 755 265.452148438 755 c 0
 466.235351562 755 568.541992188 599.055664062 569.026367188 293 c 0
EndSplineSet
EndChar

StartChar: si_Ba
Encoding: 49 3510 83
Width: 611
VWidth: 0
Flags: HW
LayerCount: 2
Back
Fore
SplineSet
382.125 0 m 4
 539.880859375 0 571.755859375 181.99609375 571.755859375 293 c 4
 571.755859375 599.055664062 469.44921875 755 268.666015625 755 c 4
 181.9453125 755 97.3740234375 707.868164062 61.3896484375 613.029296875 c 5
 170.421875 576.85546875 l 5
 187.477539062 618.959960938 227.5625 639.884765625 268.666015625 639.884765625 c 4
 393.587890625 639.884765625 457.240234375 522.796875 457.240234375 293 c 4
 457.240234375 190 430.211914062 115 378 115 c 4
 351.727539062 115 338.483398438 142.7578125 338.483398438 177 c 4
 338.483398438 228 389.125 251 389.125 324 c 4
 389.125 430 327.69140625 488.874023438 220.185546875 488.874023438 c 4
 116 488.874023438 40 425.889648438 40 220 c 4
 40 79 84 0 189 0 c 4
 241.478515625 0 269 28 298 73 c 5
 242 156 l 5
 226 120 231.125 85 190.125 85 c 4
 131.125 85 150 128 150 220 c 4
 150 339.788085938 179.172851562 376.432617188 219 376.432617188 c 4
 261.69140625 376.432617188 277.125 354 277.125 324 c 4
 277.125 264 229.586914062 237 229.586914062 177 c 4
 229.586914062 87.4052734375 257.822265625 0 382.125 0 c 4
150.475585938 129.615234375 m 4
 150.475585938 151.865234375 168.108398438 169.790039062 189.997070312 169.790039062 c 4
 211.885742188 169.790039062 229.518554688 151.865234375 229.518554688 129.615234375 c 4
 229.518554688 107.364257812 211.885742188 89.4404296875 189.997070312 89.4404296875 c 4
 168.108398438 89.4404296875 150.475585938 107.364257812 150.475585938 129.615234375 c 4
59 130 m 4
 59 58 117 0 189 0 c 4
 261 0 319 58 319 130 c 4
 319 202 261 260 189 260 c 4
 117 260 59 202 59 130 c 4
EndSplineSet
EndChar

StartChar: si_Ttha
Encoding: 36 3496 88
Width: 609
VWidth: 0
Flags: HW
HStem: -223.984 90.209<-386.545 -243.962> -125.291 92.5664<-141.146 -95.3049> 110.727 100.548<-464.98 -397.201> 467.437 98.792<-400.576 -230.492>
VStem: -575.214 104.852<216.158 288.365> -390.821 104.46<217.438 294.417> -138.522 105.02<164.787 371.336>
LayerCount: 2
Back
Fore
SplineSet
158.23046875 304 m 4
 146.235351562 265.024414062 140.787109375 124 188.786132812 115 c 4
 234.686523438 106.393554688 251.416992188 176.75 251.416992188 249.5 c 5
 347.328125 249.5 l 5
 347.328125 176.75 362.795898438 115 405.786132812 115 c 4
 453.786132812 115 454.026367188 239.958007812 454.026367188 293 c 4
 454.026367188 390 437.341796875 492.959960938 417.15625 556 c 4
 392.060546875 634.375976562 350.200195312 695.8671875 288.681640625 733 c 5
 360.681640625 817 l 5
 439.659179688 764.920898438 494.071289062 686.227539062 526.168945312 588 c 4
 550.157226562 514.590820312 569.026367188 410 569.026367188 293 c 4
 569.026367188 181.99609375 563.541992188 0 405.786132812 0 c 4
 349.866210938 0 311.84375 33.14453125 297.0234375 79.0302734375 c 5
 280.877929688 31.6025390625 241.465820312 0 188.786132812 0 c 4
 20.7861328125 0 28.1923828125 258 54.0712890625 341 c 4
 79.376953125 422.157226562 138.951171875 474.71484375 205.875 474.71484375 c 4
 233.641601562 474.71484375 262.673828125 465.66796875 291.046875 445.862304688 c 5
 253.181640625 345.604492188 l 5
 239.334960938 353.59375 226.6640625 357.211914062 215.318359375 357.211914062 c 4
 187.779296875 357.211914062 168.045898438 335.891601562 158.23046875 304 c 4
423.681640625 557 m 5
 433.681640625 576 440.331054688 609.987304688 427.681640625 624 c 4
 421.484375 630.865234375 386.681640625 656 375.681640625 652 c 5
 333.681640625 634 339.681640625 563 423.681640625 557 c 5
288.681640625 733 m 5
 354.681640625 781 l 5
 397.681640625 764 l 5
 447.587890625 736.635742188 518.05078125 491.768554688 439.681640625 461 c 5
 362.061523438 463.250976562 263.797851562 525 263.797851562 611.133789062 c 4
 263.797851562 686.51171875 336.58984375 697.581054688 288.681640625 733 c 5
EndSplineSet
EndChar

StartChar: uni25CC
Encoding: 84 9676 89
Width: 682
VWidth: 0
Flags: HW
LayerCount: 2
Back
Fore
SplineSet
132.984375 98.037109375 m 0
 134.654296875 131.916992188 161.1640625 158 195.78515625 158 c 0
 230.407226562 158 259.86328125 131.522460938 257.880859375 93.962890625 c 1
 256.213867188 60.0859375 229.702148438 34 195.081054688 34 c 0
 160.444335938 34 131.001953125 60.4208984375 132.984375 98.037109375 c 0
274.448242188 39.037109375 m 0
 276.045898438 71.515625 300.859375 99 336.249023438 99 c 0
 371.734375 99 399.252929688 71.0546875 397.344726562 34.9619140625 c 1
 395.748046875 2.4873046875 370.9375 -25 335.544921875 -25 c 0
 300.071289062 -25 272.537109375 2.8466796875 274.448242188 39.037109375 c 0
76.029296875 241.12109375 m 0
 76.9638671875 275.376953125 103.444335938 302 138.366210938 302 c 0
 172.986328125 302 202.446289062 275.524414062 200.461914062 237.959960938 c 1
 198.825195312 204.764648438 173.170898438 178 138.161132812 178 c 0
 103.401367188 178 74.9580078125 204.491210938 76.029296875 241.12109375 c 0
138.826171875 386.677734375 m 0
 141.376953125 419.798828125 167.69921875 445 201.658203125 445 c 0
 236.260742188 445 265.6796875 417.995117188 262.57421875 380.323242188 c 1
 260.026367188 347.200195312 233.69921875 322 199.741210938 322 c 0
 165.11328125 322 135.715820312 348.927734375 138.826171875 386.677734375 c 0
420.541015625 98.9443359375 m 0
 422.829101562 131.086914062 447.70703125 158 482.78515625 158 c 0
 518.569335938 158 546.106445312 129.43359375 543.32421875 93.0556640625 c 1
 541.038085938 60.916015625 516.16015625 34 481.081054688 34 c 0
 445.274414062 34 417.754882812 62.48828125 420.541015625 98.9443359375 c 0
282.778320312 444.336914062 m 0
 284.217773438 476.874023438 308.91015625 505 344.860351562 505 c 0
 381.409179688 505 407.3671875 475.806640625 405.694335938 440.663085938 c 1
 404.268554688 408.513671875 380.145507812 380 343.98828125 380 c 0
 307.809570312 380 281.076171875 408.669921875 282.778320312 444.336914062 c 0
481.029296875 241.120117188 m 0
 481.963867188 275.376953125 508.4453125 302 543.366210938 302 c 0
 577.986328125 302 607.446289062 275.524414062 605.461914062 237.959960938 c 1
 603.825195312 204.764648438 578.170898438 178 543.16015625 178 c 0
 508.400390625 178 479.958007812 204.4921875 481.029296875 241.120117188 c 0
424.262695312 385.75 m 0
 426.126953125 419.955078125 453.293945312 445 487.158203125 445 c 0
 521.0625 445 551.353515625 419.30859375 549.13671875 381.25 c 1
 547.275390625 347.043945312 520.104492188 322 486.241210938 322 c 0
 452.319335938 322 422.045898438 347.6328125 424.262695312 385.75 c 0
EndSplineSet
EndChar

StartChar: si_V.halant
Encoding: 371 -1 376
Width: 571
VWidth: 0
Flags: HW
LayerCount: 2
Back
Fore
SplineSet
375.188476562 569 m 5
 342.188476562 611 l 5
 362.060546875 652 l 21
 388.188476562 659 400.060546875 680.732421875 400.060546875 705 c 4
 400.060546875 736 369.188476562 771 281.188476562 771 c 4
 113.446289062 771 181.188476562 677 213.188476562 679 c 5
 183.188476562 645 l 5
 100.188476562 652 l 5
 30.1884765625 747 59.1572265625 871 281.188476562 871 c 4
 432.40234375 871 515.060546875 792.3046875 515.060546875 705 c 4
 515.060546875 611 425.840820312 569 375.188476562 569 c 5
190.188476562 356 m 5
 110.188476562 318.563476562 l 5
 90.1884765625 351 79.724609375 380.620117188 79.724609375 409.272460938 c 4
 79.724609375 481.53515625 128.6953125 531.563476562 202.997070312 531.563476562 c 4
 279.983398438 531.563476562 351.381835938 474.899414062 351.381835938 365.563476562 c 4
 351.381835938 351 348.188476562 325 344.1328125 306 c 5
 344.1328125 306 252.6875 366.313476562 253.752929688 371.875 c 4
 260.29296875 406 244.29296875 444 202.997070312 444 c 4
 178.197265625 444 169.205078125 426.133789062 169.205078125 404.787109375 c 4
 169.205078125 386.79296875 181.490234375 370.325195312 190.188476562 356 c 5
54.1884765625 628 m 5
 181.046875 709.354492188 400.217773438 698.924804688 480.245117188 576 c 4
 515.97265625 521.122070312 531.188476562 445.426757812 531.188476562 354 c 4
 531.188476562 118 450.188476562 0 270.188476562 0 c 4
 92.1884765625 0 40 137 40 218.826171875 c 4
 40 279.354492188 59.8984375 335.661132812 90.3779296875 362 c 4
 111.397460938 380.1640625 139.474609375 391 176.076171875 391 c 4
 183.076171875 391 256.71875 391 270.188476562 391 c 5
 299.188476562 363 344.1328125 306 344.1328125 306 c 5
 320.125 306 219.076171875 306 219.076171875 306 c 6
 163.076171875 306 150.67578125 270.6015625 150.67578125 226.6015625 c 4
 150.67578125 174 177.268554688 115 270.188476562 115 c 4
 374.640625 115 416.188476562 195.017578125 416.188476562 354 c 4
 416.188476562 423.624023438 403.974609375 479.203125 374.486328125 515 c 4
 319.1328125 582.193359375 223.79296875 596.069335938 106.188476562 534 c 5
 54.1884765625 628 l 5
EndSplineSet
EndChar

StartChar: si_VI
Encoding: 372 -1 377
Width: 571
VWidth: 0
Flags: HW
LayerCount: 2
Back
Fore
SplineSet
375.188476562 569 m 5
 342.188476562 611 l 5
 362.060546875 652 l 21
 388.188476562 659 400.060546875 680.732421875 400.060546875 705 c 4
 400.060546875 736 369.188476562 771 281.188476562 771 c 4
 193.188476562 771 161.446289062 741 161.446289062 710 c 4
 161.446289062 685.732421875 179.318359375 672.870117188 201.318359375 672.870117188 c 4
 209.045898438 672.870117188 257.706054688 675 266.188476562 675 c 5
 337.188476562 630.33203125 l 5
 266.188476562 560 l 5
 247.188476562 560 221.318359375 558 187.188476562 558 c 4
 136.536132812 558 46.4462890625 598.970703125 46.4462890625 710 c 4
 46.4462890625 797.3046875 129.974609375 871 281.188476562 871 c 4
 432.40234375 871 515.060546875 792.3046875 515.060546875 705 c 4
 515.060546875 611 425.840820312 569 375.188476562 569 c 5
190.188476562 356 m 5
 110.188476562 318.563476562 l 5
 90.1884765625 351 79.724609375 380.620117188 79.724609375 409.272460938 c 4
 79.724609375 481.53515625 128.6953125 531.563476562 202.997070312 531.563476562 c 4
 279.983398438 531.563476562 351.381835938 474.899414062 351.381835938 365.563476562 c 4
 351.381835938 351 348.188476562 325 344.1328125 306 c 5
 344.1328125 306 252.6875 366.313476562 253.752929688 371.875 c 4
 260.29296875 406 244.29296875 444 202.997070312 444 c 4
 178.197265625 444 169.205078125 426.133789062 169.205078125 404.787109375 c 4
 169.205078125 386.79296875 181.490234375 370.325195312 190.188476562 356 c 5
266.188476562 675 m 5
 460.521484375 675 531.188476562 551.029296875 531.188476562 354 c 4
 531.188476562 118 450.188476562 0 270.188476562 0 c 4
 92.1884765625 0 40 137 40 218.826171875 c 4
 40 279.354492188 59.8984375 335.661132812 90.3779296875 362 c 4
 111.397460938 380.1640625 139.474609375 391 176.076171875 391 c 4
 183.076171875 391 256.71875 391 270.188476562 391 c 5
 299.188476562 363 344.1328125 306 344.1328125 306 c 5
 320.125 306 219.076171875 306 219.076171875 306 c 6
 163.076171875 306 150.67578125 270.6015625 150.67578125 226.6015625 c 4
 150.67578125 174 177.268554688 115 270.188476562 115 c 4
 374.640625 115 416.188476562 195.017578125 416.188476562 354 c 4
 416.188476562 480 376.188476562 560 266.188476562 560 c 5
 266.188476562 675 l 5
EndSplineSet
EndChar

StartChar: si_VIi
Encoding: 373 -1 378
Width: 571
VWidth: 0
Flags: HW
LayerCount: 2
Back
Fore
SplineSet
190.188476562 356 m 5
 110.188476562 318.563476562 l 5
 90.1884765625 351 79.724609375 380.620117188 79.724609375 409.272460938 c 4
 79.724609375 481.53515625 128.6953125 531.563476562 202.997070312 531.563476562 c 4
 279.983398438 531.563476562 351.381835938 474.899414062 351.381835938 365.563476562 c 4
 351.381835938 351 348.188476562 325 344.1328125 306 c 5
 344.1328125 306 252.6875 366.313476562 253.752929688 371.875 c 4
 260.29296875 406 244.29296875 444 202.997070312 444 c 4
 178.197265625 444 169.205078125 426.133789062 169.205078125 404.787109375 c 4
 169.205078125 386.79296875 181.490234375 370.325195312 190.188476562 356 c 5
266.188476562 675 m 5
 460.521484375 675 531.188476562 551.029296875 531.188476562 354 c 4
 531.188476562 118 450.188476562 0 270.188476562 0 c 4
 92.1884765625 0 40 137 40 218.826171875 c 4
 40 279.354492188 59.8984375 335.661132812 90.3779296875 362 c 4
 111.397460938 380.1640625 139.474609375 391 176.076171875 391 c 4
 183.076171875 391 256.71875 391 270.188476562 391 c 5
 299.188476562 363 344.1328125 306 344.1328125 306 c 5
 320.125 306 219.076171875 306 219.076171875 306 c 6
 163.076171875 306 150.67578125 270.6015625 150.67578125 226.6015625 c 4
 150.67578125 174 177.268554688 115 270.188476562 115 c 4
 374.640625 115 416.188476562 195.017578125 416.188476562 354 c 4
 416.188476562 480 376.188476562 560 266.188476562 560 c 5
 266.188476562 675 l 5
255.060546875 717 m 4
 255.060546875 789 313.060546875 847 385.060546875 847 c 4
 457.060546875 847 515.060546875 789 515.060546875 717 c 4
 515.060546875 645 457.060546875 587 385.060546875 587 c 4
 313.060546875 587 255.060546875 645 255.060546875 717 c 4
346.536132812 716.615234375 m 4
 346.536132812 694.364257812 364.168945312 676.440429688 386.057617188 676.440429688 c 4
 407.946289062 676.440429688 425.579101562 694.364257812 425.579101562 716.615234375 c 4
 425.579101562 738.865234375 407.946289062 756.790039062 386.057617188 756.790039062 c 4
 364.168945312 756.790039062 346.536132812 738.865234375 346.536132812 716.615234375 c 4
366.31640625 590 m 5
 333.31640625 632 l 5
 353.188476562 673 l 5
 385.188476562 664 425.579101562 679 425.579101562 716.615234375 c 4
 425.579101562 764 369.188476562 771 281.188476562 771 c 4
 193.188476562 771 161.446289062 741 161.446289062 710 c 4
 161.446289062 685.732421875 179.318359375 672.870117188 201.318359375 672.870117188 c 4
 209.045898438 672.870117188 257.706054688 675 266.188476562 675 c 5
 337.188476562 630.33203125 l 5
 266.188476562 560 l 5
 247.188476562 560 221.318359375 558 187.188476562 558 c 4
 136.536132812 558 46.4462890625 598.970703125 46.4462890625 710 c 4
 46.4462890625 797.3046875 129.974609375 871 281.188476562 871 c 4
 432.40234375 871 515.060546875 804.3046875 515.060546875 717 c 4
 515.060546875 623 416.96875 590 366.31640625 590 c 5
EndSplineSet
EndChar

